<svg width="22" height="23" viewBox="0 0 22 23" fill="none" xmlns="http://www.w3.org/2000/svg">
<path d="M21.51 8.82998C21.5119 8.09853 21.3607 7.37476 21.0661 6.70528C20.7714 6.03579 20.3399 5.4354 19.7992 4.94276C19.2585 4.45012 18.6207 4.07613 17.9267 3.84487C17.2328 3.6136 16.4981 3.53019 15.77 3.59998C15.3599 2.67733 14.691 1.89343 13.8443 1.34325C12.9977 0.793074 12.0097 0.500244 11 0.500244C9.99029 0.500244 9.00227 0.793074 8.15564 1.34325C7.309 1.89343 6.6401 2.67733 6.22998 3.59998C4.97788 3.48838 3.7273 3.82974 2.70555 4.56202C1.6838 5.29431 0.95872 6.3689 0.662106 7.59047C0.365491 8.81204 0.517034 10.0995 1.08919 11.2188C1.66134 12.3381 2.61613 13.215 3.77998 13.69C3.902 15.387 4.61699 16.9871 5.79982 18.2102C6.98265 19.4332 8.55795 20.2013 10.25 20.38V22.5H11.75V20.38C13.442 20.2013 15.0173 19.4332 16.2001 18.2102C17.383 16.9871 18.098 15.387 18.22 13.69C19.1908 13.3008 20.0229 12.6299 20.6092 11.7638C21.1955 10.8977 21.5093 9.8759 21.51 8.82998ZM5.31998 14.03C5.45863 14.0565 5.59898 14.0732 5.73998 14.08C6.88043 14.332 7.9171 14.9253 8.71204 15.781C9.50698 16.6366 10.0225 17.7141 10.19 18.87C8.96626 18.6928 7.83203 18.1265 6.955 17.2549C6.07798 16.3833 5.50472 15.2526 5.31998 14.03ZM11.81 18.86C11.9775 17.7041 12.493 16.6266 13.2879 15.771C14.0829 14.9153 15.1195 14.322 16.26 14.07C16.401 14.0632 16.5413 14.0465 16.68 14.02C16.4953 15.2426 15.922 16.3733 15.045 17.2449C14.1679 18.1165 13.0337 18.6828 11.81 18.86ZM17.23 12.43C15.9207 12.4821 14.65 12.888 13.553 13.6047C12.456 14.3213 11.5737 15.3219 11 16.5C10.4235 15.3256 9.5401 14.3292 8.44329 13.6162C7.34649 12.9031 6.07721 12.5002 4.76998 12.45C3.89306 12.2126 3.13252 11.6641 2.63039 10.907C2.12827 10.1499 1.91889 9.23591 2.04137 8.33572C2.16384 7.43552 2.60979 6.61068 3.29594 6.01524C3.98209 5.41979 4.86151 5.09446 5.76998 5.09998H5.83998C5.79974 5.32104 5.77965 5.5453 5.77998 5.76998C5.78026 6.35873 5.87826 6.94334 6.06998 7.49998H7.69998C7.40648 6.96327 7.25179 6.36171 7.24998 5.74998C7.25538 5.46018 7.29227 5.17182 7.35998 4.88998L7.42998 4.65998C7.66195 3.89375 8.13428 3.22248 8.77718 2.74539C9.42007 2.26831 10.1994 2.01073 11 2.01073C11.8006 2.01073 12.5799 2.26831 13.2228 2.74539C13.8657 3.22248 14.338 3.89375 14.57 4.65998V4.74998C14.6741 5.07317 14.7281 5.41043 14.73 5.74998C14.7343 6.35999 14.5865 6.96145 14.3 7.49998H15.93C16.1341 6.93875 16.2423 6.34714 16.25 5.74998C16.2503 5.5253 16.2302 5.30104 16.19 5.07998H16.26C17.1685 5.07446 18.0479 5.39979 18.734 5.99524C19.4202 6.59068 19.8661 7.41552 19.9886 8.31572C20.1111 9.21591 19.9017 10.1299 19.3996 10.887C18.8975 11.6441 18.1369 12.1926 17.26 12.43H17.23Z" fill="#707070"/>
</svg>
