<svg width="18" height="22" viewBox="0 0 18 22" fill="none" xmlns="http://www.w3.org/2000/svg">
<path d="M17.849 11.8178C17.6158 11.0085 17.1145 10.3024 16.4273 9.81545C17.1859 9.27535 17.716 8.47195 17.9142 7.56205C18.1124 6.65215 17.9644 5.70104 17.4992 4.89436C17.0339 4.08768 16.2848 3.4833 15.3979 3.19918C14.5111 2.91506 13.5502 2.9716 12.7028 3.35774C12.6072 2.43656 12.1735 1.5835 11.4857 0.963361C10.7978 0.34322 9.90453 0 8.97839 0C8.05225 0 7.15897 0.34322 6.4711 0.963361C5.78324 1.5835 5.3496 2.43656 5.25395 3.35774C4.6093 3.07692 3.89875 2.98276 3.20321 3.08601C2.50767 3.18925 1.8551 3.48575 1.31983 3.94172C0.78455 4.3977 0.388081 4.99483 0.17557 5.66511C-0.0369412 6.33539 -0.0569517 7.05187 0.117817 7.73297C0.356079 8.53717 0.852101 9.24075 1.5295 9.73536C0.892111 10.2046 0.419296 10.8632 0.178594 11.6171C-0.0621088 12.3711 -0.0583867 13.1819 0.189229 13.9336C0.436844 14.6853 0.915686 15.3396 1.55736 15.8029C2.19903 16.2662 2.97071 16.5149 3.76217 16.5135C4.27844 16.5111 4.78904 16.4056 5.26396 16.2031C5.35603 17.0127 5.70968 17.7702 6.27124 18.3606C6.8328 18.951 7.57163 19.3421 8.37561 19.4746C9.17959 19.6071 10.0048 19.4737 10.7262 19.0947C11.4475 18.7157 12.0255 18.1117 12.3724 17.3745C12.8364 18.872 13.0661 20.4323 13.0533 22H14.555C14.5629 20.132 14.2514 18.2764 13.6339 16.5135C13.824 16.5234 14.0145 16.5234 14.2046 16.5135C14.7824 16.5146 15.3527 16.3827 15.8713 16.128C16.3899 15.8733 16.8429 15.5027 17.1953 15.0448C17.5476 14.5869 17.7899 14.0541 17.9032 13.4876C18.0166 12.921 17.998 12.336 17.849 11.7778V11.8178ZM14.7953 4.56919C15.2272 4.6857 15.6149 4.92761 15.9093 5.26436C16.2038 5.6011 16.3918 6.01757 16.4497 6.46114C16.5075 6.90471 16.4326 7.35548 16.2344 7.75648C16.0362 8.15749 15.7235 8.49075 15.336 8.71414C14.9925 8.90135 14.6057 8.9946 14.2146 8.98446H10.2799L12.2823 5.59041C12.4823 5.24844 12.769 4.96526 13.1133 4.76943C13.3666 4.6267 13.6456 4.53552 13.9343 4.50116C14.223 4.46679 14.5156 4.48991 14.7953 4.56919ZM8.97839 1.4755C9.57942 1.47549 10.156 1.71356 10.5819 2.13762C11.0078 2.56167 11.2485 3.13717 11.2511 3.7382C11.2503 4.13624 11.1432 4.52684 10.9407 4.86955L8.93834 8.27361L6.93595 4.86955C6.74131 4.52409 6.63793 4.13471 6.63559 3.7382C6.6354 3.4342 6.69648 3.13327 6.81516 2.85339C6.93385 2.57351 7.10772 2.32042 7.32639 2.10923C7.54506 1.89804 7.80404 1.73307 8.08787 1.62419C8.37171 1.51531 8.67458 1.46474 8.97839 1.4755ZM1.79982 5.62045C2.10971 5.12129 2.60161 4.76225 3.17146 4.61925C3.36425 4.56803 3.5627 4.54113 3.76217 4.53916C4.16047 4.53793 4.55159 4.64523 4.89352 4.84953C5.23788 5.04536 5.52452 5.32854 5.72451 5.67051L7.7269 9.07457H3.76217C3.36386 9.07579 2.97274 8.9685 2.63082 8.7642C2.36653 8.61186 2.1361 8.4072 1.95362 8.16275C1.77115 7.9183 1.64046 7.63919 1.56955 7.3425C1.41851 6.76044 1.50116 6.14238 1.79982 5.62045ZM3.17146 14.9916C2.88445 14.9163 2.61532 14.7846 2.37981 14.6041C2.14429 14.4236 1.94713 14.198 1.79982 13.9404C1.50013 13.4188 1.41742 12.8003 1.56955 12.2183C1.64653 11.9307 1.78002 11.6613 1.96223 11.4258C2.14444 11.1903 2.37172 10.9934 2.63082 10.8467C2.9712 10.6486 3.3583 10.5449 3.75215 10.5463H7.68685L5.68446 13.9404C5.48187 14.2829 5.19603 14.5688 4.85347 14.7714C4.34292 15.0612 3.73941 15.1402 3.17146 14.9916ZM8.97839 18.0853C8.68125 18.0853 8.38701 18.0268 8.11249 17.9131C7.83797 17.7994 7.58853 17.6327 7.37842 17.4226C7.16831 17.2125 7.00164 16.963 6.88793 16.6885C6.77422 16.414 6.71569 16.1198 6.71569 15.8226C6.71645 15.4246 6.8236 15.034 7.02606 14.6913L8.97839 11.2972L10.9808 14.6913C11.1832 15.034 11.2904 15.4246 11.2911 15.8226C11.2872 16.1219 11.2242 16.4175 11.1058 16.6924C10.9873 16.9674 10.8157 17.2161 10.6008 17.4245C10.3859 17.6329 10.1319 17.7968 9.8535 17.9068C9.57509 18.0167 9.27769 18.0706 8.97839 18.0653V18.0853ZM16.1369 13.9204C15.8354 14.4393 15.341 14.8179 14.7614 14.9736C14.1818 15.1292 13.5642 15.0494 13.0432 14.7513C12.7007 14.5488 12.4148 14.2629 12.2122 13.9204L10.2099 10.5263H14.1446C14.5384 10.5248 14.9255 10.6285 15.2659 10.8267C15.525 10.9734 15.7523 11.1702 15.9345 11.4057C16.1167 11.6412 16.2502 11.9107 16.3272 12.1983C16.4914 12.7751 16.4231 13.3933 16.1369 13.9204Z" fill="#707070"/>
</svg>
