<svg width="22" height="23" viewBox="0 0 22 23" fill="none" xmlns="http://www.w3.org/2000/svg">
<path d="M18.0638 15.08C9.38685 13.3 5.84995 15.15 5.74976 15.2C4.88807 15.58 4.32698 16.43 4.32698 17.37C4.32698 18.68 5.39907 19.75 6.71163 19.75H16.4106C16.8214 19.75 17.162 19.41 17.162 19C17.162 18.59 16.8214 18.25 16.4106 18.25H6.71163C6.23069 18.25 5.82991 17.86 5.82991 17.37C5.82991 17.02 6.0303 16.71 6.40103 16.55C6.43109 16.53 9.70748 14.9 17.7532 16.55C19.226 16.85 19.7571 18.06 19.7571 19C19.7571 20.43 18.6249 21.5 17.132 21.5H6.52126C4.17669 21.5 2.26295 19.59 2.26295 17.25C2.26295 15.3 3.20479 13.99 5.16862 13.22C5.21872 13.2 9.98803 11.26 18.4746 13.25C18.8754 13.35 19.2862 13.09 19.3763 12.69C19.4665 12.29 19.216 11.88 18.8153 11.79C9.80767 9.68 4.78788 11.75 4.59751 11.83C2.0826 12.82 0.75 14.69 0.75 17.25C0.75 20.42 3.33504 23 6.51124 23H17.1219C19.4365 23 21.25 21.24 21.25 19C21.25 17.05 19.9675 15.47 18.0538 15.08H18.0638ZM4.7979 8.46C4.67766 8.86 4.95821 9.24 5.3089 9.24C5.37903 9.24 5.44917 9.22 5.51931 9.19C6.00024 8.96 6.52126 8.85 7.04228 8.85C7.27273 8.85 7.5132 8.87 7.74365 8.92C8.50513 9.08 9.22654 9.32 10.7796 9.32C12.3326 9.32 13.054 9.08 13.8155 8.92C14.0459 8.87 14.2864 8.85 14.5169 8.85C15.0379 8.85 15.5489 8.97 16.0398 9.19C16.11 9.22 16.1801 9.24 16.2502 9.24C16.6009 9.24 16.8815 8.86 16.7612 8.46L16.631 8.03C16.4607 7.46 16.4005 6.85 16.4506 6.25C16.5308 5.29 16.5308 4.04 16.4506 3.08C16.4005 2.48 16.4506 1.87 16.631 1.3L16.7612 0.87C16.8815 0.47 16.6009 0.09 16.2502 0.09C16.1801 0.09 16.11 0.11 16.0398 0.14C15.5589 0.37 15.0379 0.48 14.5169 0.48C14.2864 0.48 14.0459 0.46 13.8155 0.41C13.054 0.24 12.3326 0 10.7796 0C9.22654 0 8.50513 0.24 7.74365 0.4C7.5132 0.45 7.27273 0.47 7.04228 0.47C6.52126 0.47 6.01026 0.35 5.51931 0.13C5.44917 0.1 5.37903 0.08 5.3089 0.08C4.95821 0.08 4.67766 0.46 4.7979 0.86L4.92815 1.29C5.09848 1.86 5.1586 2.47 5.1085 3.07C5.02835 4.03 5.02835 5.28 5.1085 6.24C5.1586 6.84 5.1085 7.45 4.92815 8.02L4.7979 8.45V8.46ZM6.5914 1.95C6.74169 1.96 6.89198 1.97 7.03226 1.97C7.37292 1.97 7.71359 1.93 8.04423 1.86C8.17449 1.83 8.30474 1.8 8.44501 1.77C9.06623 1.63 9.64736 1.49 10.7696 1.49C11.8917 1.49 12.4829 1.62 13.0941 1.77C13.2243 1.8 13.3646 1.83 13.4949 1.86C13.8255 1.93 14.1662 1.97 14.5068 1.97C14.6571 1.97 14.8074 1.97 14.9477 1.95C14.8976 2.36 14.8976 2.78 14.9277 3.2C14.9978 4.07 14.9978 5.25 14.9277 6.12C14.8876 6.54 14.8976 6.96 14.9477 7.37C14.7974 7.36 14.6471 7.35 14.5068 7.35C14.1662 7.35 13.8255 7.39 13.4949 7.46C13.3646 7.49 13.2344 7.52 13.0941 7.55C12.4729 7.69 11.8917 7.83 10.7696 7.83C9.64736 7.83 9.05621 7.7 8.44501 7.55C8.31476 7.52 8.17449 7.49 8.04423 7.46C7.71359 7.39 7.37292 7.35 7.03226 7.35C6.88197 7.35 6.73167 7.35 6.5914 7.37C6.6415 6.96 6.6415 6.54 6.61144 6.12C6.5413 5.25 6.5413 4.07 6.61144 3.2C6.65152 2.78 6.6415 2.36 6.5914 1.95Z" fill="#707070"/>
</svg>
