<svg width="24" height="24" viewBox="0 0 24 24" fill="none" xmlns="http://www.w3.org/2000/svg">
<path d="M22.9114 15.2783C22.5926 14.9595 22.4233 14.531 22.4233 14.0926C22.4233 13.6541 22.6026 13.2157 22.9114 12.8968L22.991 12.8171C23.2201 12.5879 23.2201 12.2093 22.991 11.9701L22.9114 11.8904C22.5926 11.5715 22.4233 11.143 22.4233 10.7046C22.4233 10.2562 22.6026 9.82772 22.9114 9.50886L22.991 9.42914C23.2201 9.19996 23.2201 8.8213 22.991 8.58215L22.9114 8.50244C22.5926 8.18357 22.4233 7.75509 22.4233 7.31665C22.4233 6.87821 22.6026 6.43977 22.9114 6.13087L22.991 6.05115C23.2201 5.82197 23.2201 5.44331 22.991 5.20416L22.9114 5.12445C22.5926 4.80558 22.4233 4.3771 22.4233 3.93866C22.4233 3.49026 22.6026 3.06178 22.9213 2.74291L23.0707 2.59345C23.2699 2.39415 23.2699 2.08525 23.0707 1.88596L22.0847 0.899469C21.8855 0.700177 21.5767 0.700177 21.3775 0.899469L21.2281 1.04894C20.9094 1.3678 20.4811 1.54717 20.0428 1.54717C19.5946 1.54717 19.1663 1.3678 18.8576 1.0589L18.7779 0.979185C18.5488 0.75 18.1703 0.75 17.9313 0.979185L17.8516 1.0589C17.5329 1.37777 17.1046 1.55713 16.6663 1.55713C16.2181 1.55713 15.7898 1.37777 15.4811 1.0589L15.4014 0.979185C15.1723 0.75 14.7938 0.75 14.5548 0.979185L14.4751 1.0589C14.1564 1.37777 13.7281 1.54717 13.2898 1.54717C12.8416 1.54717 12.4133 1.3678 12.1046 1.04894L12.0249 0.969221C11.7958 0.740035 11.4173 0.740035 11.1783 0.969221L11.0986 1.04894C10.7799 1.3678 10.3516 1.54717 9.91335 1.54717C9.46514 1.54717 9.03685 1.3678 8.72809 1.0589L8.57869 0.909433C8.37948 0.710142 8.07072 0.710142 7.87151 0.909433L6.88546 1.89593C6.68625 2.09522 6.68625 2.40412 6.88546 2.60341L7.03486 2.75288C7.35359 3.07174 7.52291 3.50022 7.52291 3.93866C7.52291 4.38707 7.34363 4.81554 7.03486 5.13441L6.95518 5.21413C6.83566 5.3337 6.78586 5.48317 6.78586 5.63264C6.90538 5.71236 7.01494 5.80204 7.1245 5.90168L7.20418 5.9814C7.20418 5.9814 7.28386 6.04119 7.33367 6.04119C7.38347 6.04119 7.43327 6.02126 7.46315 5.9814L7.54283 5.90168C7.94124 5.5031 8.45916 5.28388 9.02689 5.28388V3.02192H20.9791V14.9794H18.738C18.738 15.5175 18.5388 16.0556 18.1305 16.4641L18.0508 16.5438C18.0508 16.5438 17.991 16.6236 17.991 16.6734C17.991 16.7232 18.011 16.773 18.0408 16.8029L18.1205 16.8826C18.2201 16.9823 18.3098 17.1019 18.3894 17.2115C18.5388 17.2115 18.6882 17.1517 18.8078 17.0421L18.8875 16.9624C19.2062 16.6435 19.6345 16.4741 20.0727 16.4741C20.5209 16.4741 20.9492 16.6535 21.258 16.9624L21.4074 17.1118C21.6066 17.3111 21.9153 17.3111 22.1145 17.1118L23.1006 16.1253C23.2998 15.926 23.2998 15.6171 23.1006 15.4178L22.9512 15.2684L22.9114 15.2783ZM16.9353 8.71169L17.0847 8.56222C17.2839 8.36293 17.2839 8.05403 17.0847 7.85474L16.0986 6.86825C15.8994 6.66896 15.5906 6.66896 15.3914 6.86825L15.242 7.01772C14.9233 7.33658 14.495 7.50598 14.0568 7.50598C13.6086 7.50598 13.1803 7.32662 12.8715 7.01772L12.7918 6.938C12.5627 6.70881 12.1843 6.70881 11.9452 6.938L11.8655 7.01772C11.5468 7.33658 11.1185 7.50598 10.6803 7.50598C10.2321 7.50598 9.80379 7.32662 9.49502 7.01772L9.41534 6.938C9.18625 6.70881 8.80777 6.70881 8.56873 6.938L8.48904 7.01772C8.17032 7.33658 7.74203 7.50598 7.30378 7.50598C6.85558 7.50598 6.42729 7.32662 6.11853 7.01772L6.03885 6.938C5.80976 6.70881 5.43127 6.70881 5.19223 6.938L5.11255 7.01772C4.79382 7.33658 4.36554 7.50598 3.92729 7.50598C3.47908 7.50598 3.0508 7.32662 2.74203 7.01772L2.59263 6.86825C2.39343 6.66896 2.08466 6.66896 1.88546 6.86825L0.899402 7.85474C0.700199 8.05403 0.700199 8.36293 0.899402 8.56222L1.0488 8.71169C1.36753 9.03056 1.54681 9.45903 1.54681 9.90744C1.54681 10.3558 1.36753 10.7843 1.05876 11.1032L0.979084 11.1829C0.75 11.4121 0.75 11.7907 0.979084 12.0299L1.05876 12.1096C1.37749 12.4285 1.54681 12.857 1.54681 13.2954C1.54681 13.7338 1.36753 14.1723 1.05876 14.4812L0.979084 14.5609C0.75 14.7901 0.75 15.1687 0.979084 15.4079L1.05876 15.4876C1.37749 15.8065 1.54681 16.2349 1.54681 16.6734C1.54681 17.1218 1.36753 17.5503 1.05876 17.8691L0.979084 17.9488C0.75 18.178 0.75 18.5567 0.979084 18.7958L1.05876 18.8756C1.37749 19.1944 1.54681 19.6229 1.54681 20.0613C1.54681 20.4998 1.36753 20.9382 1.05876 21.2571L0.909363 21.4066C0.710159 21.6058 0.710159 21.9147 0.909363 22.114L1.89542 23.1005C2.09462 23.2998 2.40339 23.2998 2.60259 23.1005L2.75199 22.9511C3.07072 22.6322 3.499 22.4628 3.93725 22.4628C4.3755 22.4628 4.81375 22.6422 5.12251 22.9511L5.20219 23.0308C5.43127 23.26 5.80976 23.26 6.0488 23.0308L6.12849 22.9511C6.44721 22.6322 6.8755 22.4628 7.31375 22.4628C7.76195 22.4628 8.19024 22.6422 8.499 22.9511L8.57869 23.0308C8.80777 23.26 9.18625 23.26 9.4253 23.0308L9.50498 22.9511C9.8237 22.6322 10.252 22.4628 10.6902 22.4628C11.1285 22.4628 11.5667 22.6422 11.8755 22.9511L11.9552 23.0308C12.1843 23.26 12.5627 23.26 12.8018 23.0308L12.8815 22.9511C13.2002 22.6322 13.6285 22.4628 14.0667 22.4628C14.505 22.4628 14.9432 22.6422 15.252 22.9511L15.4014 23.1005C15.6006 23.2998 15.9094 23.2998 16.1086 23.1005L17.0946 22.114C17.2938 21.9147 17.2938 21.6058 17.0946 21.4066L16.9452 21.2571C16.6265 20.9382 16.4572 20.5097 16.4572 20.0613C16.4572 19.6129 16.6365 19.1845 16.9452 18.8756L17.0249 18.7958C17.254 18.5667 17.254 18.188 17.0249 17.9488L16.9452 17.8691C16.6265 17.5503 16.4572 17.1218 16.4572 16.6734C16.4572 16.225 16.6365 15.7965 16.9452 15.4776L17.0249 15.3979C17.254 15.1687 17.254 14.7901 17.0249 14.5509L16.9452 14.4712C16.6265 14.1523 16.4572 13.7239 16.4572 13.2854C16.4572 12.847 16.6365 12.4085 16.9452 12.0996L17.0249 12.0199C17.254 11.7907 17.254 11.4121 17.0249 11.1729L16.9452 11.0932C16.6265 10.7744 16.4572 10.3459 16.4572 9.90744C16.4572 9.45903 16.6365 9.03056 16.9452 8.71169H16.9353ZM3.001 9.01063H7.91135L3.001 13.9132V9.00066V9.01063ZM3.001 19.9119V16.0357L10.0229 9.01063H13.8974L3.001 19.9019V19.9119ZM14.9532 20.9681H10.0428L14.9532 16.0556V20.9681ZM14.9532 13.9431L7.93127 20.9681H4.05677L14.9532 10.0569V13.9331V13.9431Z" fill="#707070"/>
</svg>
