<svg width="25" height="22" viewBox="0 0 25 22" fill="none" xmlns="http://www.w3.org/2000/svg">
<path d="M19.5744 3.61C18.568 3.0225 17.4913 2.559 16.369 2.23V2.05C16.2501 1.6251 16.007 1.24349 15.6697 0.95212C15.3324 0.660748 14.9154 0.472317 14.4702 0.410004C13.1658 0.196665 11.8342 0.196665 10.5298 0.410004C10.0938 0.481248 9.68786 0.673689 9.36029 0.96443C9.03273 1.25517 8.79732 1.63197 8.68208 2.05V2.23C7.54208 2.55512 6.44809 3.01872 5.42562 3.61L0.25 6.53001L3.49625 12.04L5.35417 11.04V21.75H19.6458V10.99L21.5037 11.99L24.75 6.53001L19.5744 3.61ZM10.7952 1.88C11.3585 1.7881 11.929 1.7446 12.5 1.75C13.071 1.7446 13.6415 1.7881 14.2048 1.88C14.4007 1.91637 14.5756 2.02343 14.6948 2.18C14.1285 2.97841 13.3761 3.63315 12.5 4.09C11.6239 3.63315 10.8715 2.97841 10.3052 2.18C10.4244 2.02343 10.5993 1.91637 10.7952 1.88ZM20.9423 9.99001L20.4115 9.69001L18.1146 8.39001V20.25H6.88542V8.39001L4.58854 9.69001L4.05771 9.99001L2.34271 7.08001L6.19125 4.91C7.09311 4.3853 8.05624 3.96896 9.05979 3.67L9.4375 3.56C10.0858 4.29508 10.8595 4.91428 11.7242 5.39V7.00001C11.7268 7.19983 11.8098 7.39058 11.955 7.53095C12.1002 7.67133 12.296 7.75002 12.5 7.75001C12.7022 7.74742 12.8954 7.66757 13.0385 7.52747C13.1815 7.38738 13.263 7.19811 13.2656 7.00001V5.39C14.1339 4.91524 14.9111 4.29599 15.5625 3.56L15.9504 3.67C16.954 3.96896 17.9171 4.3853 18.819 4.91L22.7083 7.08001L20.9423 9.99001ZM13.5208 10.15C13.5197 10.4863 13.6051 10.8175 13.7693 11.1129C13.9335 11.4083 14.171 11.6584 14.46 11.84L15.0521 12.21L15.634 11.84C15.9248 11.6596 16.1644 11.41 16.3304 11.1145C16.4964 10.8191 16.5834 10.4873 16.5833 10.15V8.75001H13.5208V10.15Z" fill="#707070"/>
</svg>
