<svg width="22" height="20" viewBox="0 0 22 20" fill="none" xmlns="http://www.w3.org/2000/svg">
<path d="M21.233 17.0208L14.4874 5.38232C14.4641 5.33661 14.4526 5.28583 14.454 5.23459C14.4554 5.18334 14.4696 5.13325 14.4953 5.08886C14.5211 5.04447 14.5575 5.00718 14.6014 4.98039C14.6452 4.9536 14.6951 4.93815 14.7465 4.93545H14.7963L20.5654 5.78947V1.91658L13.9593 0.139027C13.634 0.0528221 13.2995 0.00614101 12.9629 0C12.264 0.000714482 11.5775 0.184593 10.9724 0.53319C10.3673 0.881787 9.86483 1.38284 9.51537 1.9861L0.766993 17.0208C0.591749 17.3233 0.499655 17.6666 0.500001 18.0159C0.500347 18.3652 0.593122 18.7082 0.768965 19.0104C0.944809 19.3125 1.1975 19.5631 1.50155 19.7369C1.8056 19.9106 2.15025 20.0014 2.50073 20H19.5092C19.8589 19.9996 20.2023 19.9076 20.5049 19.7331C20.8076 19.5587 21.0589 19.3079 21.2335 19.0061C21.4082 18.7042 21.5001 18.3618 21.5 18.0134C21.4999 17.6649 21.4078 17.3226 21.233 17.0208ZM10.7708 2.74081C10.989 2.36414 11.3027 2.05122 11.6804 1.83337C12.0581 1.61551 12.4866 1.50038 12.9231 1.4995C13.1421 1.49922 13.36 1.5293 13.5707 1.58888L19.0708 3.05859V4.11122L15.0155 3.51539H14.8561H14.7465C14.4465 3.52568 14.154 3.61082 13.8956 3.76301C13.6372 3.91521 13.4213 4.12959 13.2676 4.38651C13.1139 4.64343 13.0274 4.93468 13.016 5.23358C13.0045 5.53247 13.0685 5.82945 13.202 6.09731L15.5834 10.3178C15.627 10.393 15.6501 10.4784 15.6502 10.5653C15.6503 10.6522 15.6276 10.7376 15.5842 10.813C15.5408 10.8884 15.4784 10.9511 15.403 10.9949C15.3277 11.0387 15.2422 11.062 15.155 11.0626H6.81513C6.72709 11.0638 6.64029 11.0417 6.56358 10.9987C6.48687 10.9556 6.42299 10.893 6.37843 10.8173C6.33388 10.7416 6.31025 10.6555 6.30994 10.5678C6.30964 10.48 6.33268 10.3938 6.37672 10.3178L10.7708 2.74081ZM19.9377 18.2621C19.8958 18.3386 19.8338 18.4021 19.7583 18.4459C19.6827 18.4897 19.5966 18.512 19.5092 18.5104H2.50073C2.4121 18.5116 2.32474 18.4893 2.24768 18.4456C2.17061 18.402 2.10662 18.3387 2.06231 18.2621C2.01954 18.1863 1.99707 18.1009 1.99707 18.0139C1.99707 17.9269 2.01954 17.8414 2.06231 17.7656L5.05151 12.5521H16.9186L19.9078 17.7656C19.9582 17.8376 19.9876 17.9221 19.9929 18.0097C19.9982 18.0973 19.9791 18.1847 19.9377 18.2621Z" fill="#707070"/>
</svg>
